<svg xmlns="http://www.w3.org/2000/svg" viewBox="0 0 200 200"><defs><linearGradient id="bg" x1="0" y1="0" x2="1" y2="1"><stop offset="0" stop-color="#FBF6EC"/><stop offset="1" stop-color="#EFE2CC"/></linearGradient></defs><rect width="200" height="200" fill="url(#bg)"/><path d="M62 70 Q58 64 66 60 H134 Q142 64 138 70 L146 148 Q147 158 136 158 H64 Q53 158 54 148 Z" fill="#CBA97C" stroke="#4A2C17" stroke-width="3"/><path d="M66 60 Q100 74 134 60" fill="none" stroke="#4A2C17" stroke-width="3"/><path d="M66 96 h8 v-6 h9 v6 h9 v-6 h9 v6 h9 v-6 h9 v6 h9 v-6 h9 v6 h8" fill="none" stroke="#4A2C17" stroke-width="2.2"/><ellipse cx="100" cy="128" rx="24" ry="14" fill="#4A2C17" opacity=".9"/><path d="M30 186 h10 v-7 h12 v7 h12 v-7 h12 v7 h12 v-7 h12 v7 h12 v-7 h12 v7 h12 v-7 h12 v7 h10" fill="none" stroke="#B8862B" stroke-width="2.4"/></svg>