<svg xmlns="http://www.w3.org/2000/svg" viewBox="0 0 200 200"><defs><linearGradient id="bg" x1="0" y1="0" x2="1" y2="1"><stop offset="0" stop-color="#FBF6EC"/><stop offset="1" stop-color="#EFE2CC"/></linearGradient></defs><rect width="200" height="200" fill="url(#bg)"/><rect x="78" y="74" width="9" height="7" rx="2" fill="#4A2C17" transform="rotate(15 78 74)"/><rect x="96" y="66" width="9" height="7" rx="2" fill="#2B1A12" transform="rotate(-20 96 66)"/><rect x="112" y="76" width="9" height="7" rx="2" fill="#4A2C17" transform="rotate(30 112 76)"/><rect x="88" y="86" width="9" height="7" rx="2" fill="#2B1A12" transform="rotate(5 88 86)"/><rect x="106" y="90" width="9" height="7" rx="2" fill="#4A2C17" transform="rotate(-12 106 90)"/><rect x="70" y="90" width="9" height="7" rx="2" fill="#2B1A12" transform="rotate(22 70 90)"/><path d="M48 104 A52 52 0 0 0 152 104 Z" fill="#2F7F72"/><path d="M48 104 A52 52 0 0 0 152 104" fill="none" stroke="#2B1A12" stroke-width="3.5"/><ellipse cx="100" cy="104" rx="52" ry="8" fill="#3E9C8C"/><path d="M30 186 h10 v-7 h12 v7 h12 v-7 h12 v7 h12 v-7 h12 v7 h12 v-7 h12 v7 h12 v-7 h12 v7 h10" fill="none" stroke="#B8862B" stroke-width="2.4"/></svg>